<svg width="293" height="108" viewBox="0 0 293 108" fill="none" xmlns="http://www.w3.org/2000/svg">
<path fill-rule="evenodd" clip-rule="evenodd" d="M-8.77207 77.4158C-8.77207 77.4158 22.7295 31.127 62.2652 37.3594C101.801 43.592 106.137 62.6442 127.818 38.0972C149.499 13.5504 179.284 -15.6228 230.54 9.8485C281.796 35.3201 300.647 0.851311 300.647 0.851311C297.668 110.38 294.825 107.563 294.825 107.563H-9.68759" fill="#ECB072" fill-opacity="0.01"/>
<path fill-rule="evenodd" clip-rule="evenodd" d="M-8.77207 77.4158C-8.77207 77.4158 22.7295 31.127 62.2652 37.3594C101.801 43.592 106.137 62.6442 127.818 38.0972C149.499 13.5504 179.284 -15.6228 230.54 9.8485C281.796 35.3201 300.647 0.851311 300.647 0.851311C297.668 110.38 294.825 107.563 294.825 107.563H-9.68759" fill="url(#paint0_linear_364_352)"/>
<defs>
<linearGradient id="paint0_linear_364_352" x1="301.707" y1="111.576" x2="301.707" y2="-16.834" gradientUnits="userSpaceOnUse">
<stop stop-color="#37C8C3" stop-opacity="0.01"/>
<stop offset="1" stop-color="#37C8C3" stop-opacity="0.25098"/>
</linearGradient>
</defs>
</svg>
