<svg width="293" height="154" viewBox="0 0 293 154" fill="none" xmlns="http://www.w3.org/2000/svg">
<mask id="path-1-inside-1_364_353" fill="white">
<path fill-rule="evenodd" clip-rule="evenodd" d="M-8.64014 118.664C-8.64014 118.664 22.9441 72.2534 62.5839 78.5022C102.224 84.7513 106.571 103.854 128.31 79.242C150.047 54.6306 179.911 25.3806 231.301 50.9189C282.692 76.4575 301.592 41.898 301.592 41.898L309.741 12.6101V-8.97473L307.652 -28.771L324.36 146.467L320.168 153.434"/>
</mask>
<path fill-rule="evenodd" clip-rule="evenodd" d="M-8.64014 118.664C-8.64014 118.664 22.9441 72.2534 62.5839 78.5022C102.224 84.7513 106.571 103.854 128.31 79.242C150.047 54.6306 179.911 25.3806 231.301 50.9189C282.692 76.4575 301.592 41.898 301.592 41.898L309.741 12.6101V-8.97473L307.652 -28.771L324.36 146.467L320.168 153.434" fill="black" fill-opacity="0.01"/>
<path d="M62.5839 78.5022L63.11 75.1653H63.11L62.5839 78.5022ZM128.31 79.242L130.842 81.4783L130.842 81.4783L128.31 79.242ZM231.301 50.9189L232.804 47.8937L232.804 47.8937L231.301 50.9189ZM301.592 41.898L304.556 43.5189L304.743 43.1779L304.847 42.8035L301.592 41.898ZM309.741 12.6101L312.995 13.5155L313.119 13.0712V12.6101H309.741ZM309.741 -8.97473H313.119V-9.15245L313.1 -9.32919L309.741 -8.97473ZM307.652 -28.771L311.011 -29.1255L304.289 -28.4504L307.652 -28.771ZM324.36 146.467L327.254 148.209L327.828 147.255L327.723 146.147L324.36 146.467ZM-8.64014 118.664C-5.84741 120.564 -5.84789 120.565 -5.84825 120.566C-5.84821 120.566 -5.84846 120.566 -5.84838 120.566C-5.84822 120.566 -5.84759 120.565 -5.84648 120.563C-5.84426 120.56 -5.84014 120.554 -5.83413 120.545C-5.82211 120.528 -5.80252 120.499 -5.77547 120.46C-5.72134 120.383 -5.63735 120.263 -5.52419 120.104C-5.29785 119.786 -4.95504 119.312 -4.50149 118.707C-3.59408 117.495 -2.24536 115.757 -0.501378 113.685C2.99201 109.535 8.04337 104.078 14.2829 98.8237C26.8724 88.2224 43.6941 78.9442 62.0579 81.8391L63.11 75.1653C41.8339 71.8114 23.0436 82.6141 9.93108 93.6558C3.31953 99.2232 -2.00266 104.978 -5.67007 109.334C-7.50649 111.516 -8.93497 113.355 -9.90967 114.657C-10.3972 115.308 -10.7716 115.826 -11.0273 116.185C-11.1552 116.364 -11.2534 116.504 -11.3212 116.602C-11.3551 116.65 -11.3814 116.688 -11.4001 116.715C-11.4094 116.729 -11.4168 116.74 -11.4222 116.748C-11.425 116.752 -11.4272 116.755 -11.429 116.758C-11.4299 116.759 -11.4309 116.76 -11.4313 116.761C-11.4321 116.762 -11.4329 116.763 -8.64014 118.664ZM62.0579 81.8391C71.7011 83.3593 79.1919 85.6583 85.3714 87.892C91.3372 90.0485 96.7336 92.4192 101.24 93.6951C106.027 95.0508 110.652 95.4681 115.657 93.5406C120.498 91.6766 125.282 87.7727 130.842 81.4783L125.778 77.0057C120.468 83.0171 116.556 85.9547 113.23 87.2357C110.068 88.4533 107.052 88.3192 103.08 87.1946C98.8272 85.9902 94.3456 83.9519 87.6682 81.5382C81.2045 79.2018 73.2868 76.7696 63.11 75.1653L62.0579 81.8391ZM130.842 81.4783C141.707 69.1764 154.177 56.2432 170.029 49.3739C185.639 42.6092 204.909 41.5759 229.798 53.944L232.804 47.8937C206.302 34.7236 184.946 35.5462 167.342 43.1748C149.98 50.6987 136.65 64.6962 125.778 77.0057L130.842 81.4783ZM229.798 53.944C256.267 67.0978 274.954 65.0046 287.201 59.0206C293.241 56.0697 297.542 52.2538 300.339 49.1675C301.739 47.6228 302.77 46.2528 303.461 45.2507C303.807 44.7492 304.068 44.3385 304.249 44.0423C304.34 43.8941 304.411 43.7745 304.462 43.6863C304.487 43.6422 304.508 43.606 304.523 43.578C304.531 43.564 304.538 43.552 304.543 43.5422C304.546 43.5372 304.548 43.5328 304.551 43.5289C304.552 43.527 304.553 43.5245 304.554 43.5235C304.555 43.5212 304.556 43.5189 301.592 41.898C298.629 40.2771 298.63 40.2751 298.631 40.2733C298.631 40.2729 298.632 40.2711 298.632 40.2702C298.633 40.2685 298.634 40.2672 298.634 40.2664C298.635 40.2649 298.635 40.2655 298.634 40.268C298.631 40.273 298.623 40.2859 298.612 40.3064C298.588 40.3475 298.546 40.4188 298.486 40.5175C298.365 40.7151 298.17 41.0219 297.899 41.4155C297.355 42.2036 296.508 43.3341 295.333 44.6303C292.981 47.2258 289.345 50.4536 284.235 52.9503C274.184 57.8613 257.726 60.2786 232.804 47.8937L229.798 53.944ZM304.847 42.8035L312.995 13.5155L306.486 11.7046L298.338 40.9926L304.847 42.8035ZM313.119 12.6101V-8.97473H306.362V12.6101H313.119ZM313.1 -9.32919L311.011 -29.1255L304.292 -28.4165L306.381 -8.62027L313.1 -9.32919ZM304.289 -28.4504L320.997 146.788L327.723 146.147L311.015 -29.0916L304.289 -28.4504ZM321.465 144.726L317.274 151.693L323.063 155.176L327.254 148.209L321.465 144.726Z" fill="#009FDD" mask="url(#path-1-inside-1_364_353)"/>
</svg>
