<svg width="43" height="26" viewBox="0 0 43 26" fill="none" xmlns="http://www.w3.org/2000/svg">
<g clip-path="url(#clip0_364_417)">
<path d="M36.9852 3.48049L35.4994 8.51L33.0562 0.318481H27.9734L25.5558 8.51L24.0991 3.57336L19.481 5.21705L23.0021 17.0906H28.1131L30.528 8.89909L32.9457 17.0906H38.0284L41.5779 5.11675L36.9852 3.48049Z" fill="white"/>
<path d="M37.9171 0.318481L37.5283 1.63065L42.1246 3.26783L42.9998 0.318481H37.9171Z" fill="#FCC82B"/>
<path d="M23.1381 0.318481H18.0298L18.9343 3.37091L23.5515 1.72444L23.1381 0.318481Z" fill="#FCC82B"/>
<path d="M0 20.5573C0 22.0598 0.600543 23.4203 1.56798 24.4046C2.53542 25.3927 3.8725 26 5.34922 26V22.1044L0 19.6593V20.5573Z" fill="#FCC82B"/>
<path d="M9.50008 0H0V17.8865L0.0574988 17.9023V17.9181L5.35013 20.3372V17.5253H9.76932C14.7599 17.5253 18.218 13.9779 18.218 8.71712C18.218 3.45639 14.6394 0 9.50008 0ZM9.10854 13.1802C6.69633 13.1802 4.74137 11.191 4.74137 8.73662C4.74137 6.28224 6.69633 4.29309 9.10854 4.29309C11.5208 4.29309 13.4757 6.28224 13.4757 8.73662C13.4757 11.191 11.5208 13.1802 9.10854 13.1802Z" fill="white"/>
</g>
<defs>
<clipPath id="clip0_364_417">
<rect width="43" height="26" fill="white"/>
</clipPath>
</defs>
</svg>
