<svg xmlns="http://www.w3.org/2000/svg" width="64" height="64" viewBox="0 0 64 64" fill="none">
  <mask id="mask0_364_333" style="mask-type:luminance" maskUnits="userSpaceOnUse" x="0" y="0" width="64" height="64">
    <path d="M32 61.9999C35.9404 62.005 39.8429 61.2314 43.4834 59.7234C47.1238 58.2154 50.4303 56.0029 53.2129 53.2129C56.0029 50.4303 58.2154 47.1238 59.7234 43.4834C61.2314 39.8429 62.005 35.9404 61.9999 32C62.005 28.0596 61.2313 24.1571 59.7233 20.5166C58.2153 16.8762 56.0028 13.5697 53.2129 10.787C50.4303 7.99706 47.1238 5.78452 43.4834 4.27655C39.8429 2.76858 35.9404 1.99492 32 2.00003C28.0596 1.995 24.1571 2.7687 20.5166 4.27666C16.8762 5.78463 13.5697 7.99712 10.787 10.787C7.99712 13.5697 5.78463 16.8762 4.27666 20.5166C2.7687 24.1571 1.995 28.0596 2.00003 32C1.99492 35.9404 2.76858 39.8429 4.27655 43.4834C5.78452 47.1238 7.99706 50.4303 10.787 53.2129C13.5697 56.0028 16.8762 58.2153 20.5166 59.7233C24.1571 61.2313 28.0596 62.005 32 61.9999Z" fill="white" stroke="white" stroke-width="4" stroke-linejoin="round"/>
    <path fill-rule="evenodd" clip-rule="evenodd" d="M32 51.5C32.9946 51.5 33.9484 51.1049 34.6516 50.4016C35.3549 49.6984 35.75 48.7446 35.75 47.75C35.75 46.7554 35.3549 45.8016 34.6516 45.0983C33.9484 44.3951 32.9946 44 32 44C31.0054 44 30.0516 44.3951 29.3483 45.0983C28.6451 45.8016 28.25 46.7554 28.25 47.75C28.25 48.7446 28.6451 49.6984 29.3483 50.4016C30.0516 51.1049 31.0054 51.5 32 51.5Z" fill="black"/>
    <path d="M32 14V38" stroke="black" stroke-width="4" stroke-linecap="round" stroke-linejoin="round"/>
  </mask>
  <g mask="url(#mask0_364_333)">
    <path d="M-4 -3.99988H67.9999V68H-4V-3.99988Z" fill="#FEC84B"/>
  </g>
</svg>